PathFileType	4	(X/Y/Z)	S01_0011_Gait_markers.trc
DataRate	CameraRate	NumFrames	NumMarkers	Units	OrigDataRate	OrigDataStartFrame	OrigNumFrames
250.000000	250.000000	4	54	mm	250.000000	224	359
Frame#	Time	HEAD_ANT			R_HEAD			L_HEAD			C7			R_BACK			L_BACK			STERNUM			R_ACROMION			R_HUM_PROX			R_HUM_ANT			R_HUM_POST			R_ELBOW_LAT			R_ELBOW_MED			R_FOREARM			R_WIRST_LAT			R_WRITS_MED			R_HAND			L_ACROMION			L_HUM_PROX			L_HUM_ANT			L_HUM_POST			L_ELBOW_LAT			L_ELBOW_MED			L_FOREARM			L_WRIST_LAT			L_WIRST_MED			L_HAND			R_ILIAC			SACRUM			L_ILIAC			R_GTROCH			R_THIGH__1			R_THIGH_2			R_THIGH_3			R_THIGH_4			R_SHANK_1			R_SHANK_2			R_SHANK_3			R_SHANK_4			R_HEEL			R_FOOT_LAT			R_FOOT_MED			L_GTROCH			L_THIGH_1			L_THIGH_2			L_THIGH_3			L_THIGH_4			L_SHANK_1			L_SHANK_2			L_SHANK_3			L_SHANK_4			L_HEEL			L_FOOT_LAT			L_FOOT_MED			
		X1	Y1	Z1	X2	Y2	Z2	X3	Y3	Z3	X4	Y4	Z4	X5	Y5	Z5	X6	Y6	Z6	X7	Y7	Z7	X8	Y8	Z8	X9	Y9	Z9	X10	Y10	Z10	X11	Y11	Z11	X12	Y12	Z12	X13	Y13	Z13	X14	Y14	Z14	X15	Y15	Z15	X16	Y16	Z16	X17	Y17	Z17	X18	Y18	Z18	X19	Y19	Z19	X20	Y20	Z20	X21	Y21	Z21	X22	Y22	Z22	X23	Y23	Z23	X24	Y24	Z24	X25	Y25	Z25	X26	Y26	Z26	X27	Y27	Z27	X28	Y28	Z28	X29	Y29	Z29	X30	Y30	Z30	X31	Y31	Z31	X32	Y32	Z32	X33	Y33	Z33	X34	Y34	Z34	X35	Y35	Z35	X36	Y36	Z36	X37	Y37	Z37	X38	Y38	Z38	X39	Y39	Z39	X40	Y40	Z40	X41	Y41	Z41	X42	Y42	Z42	X43	Y43	Z43	X44	Y44	Z44	X45	Y45	Z45	X46	Y46	Z46	X47	Y47	Z47	X48	Y48	Z48	X49	Y49	Z49	X50	Y50	Z50	X51	Y51	Z51	X52	Y52	Z52	X53	Y53	Z53	X54	Y54	Z54	

225	0.896	1374.94482421875	1741.480346679688	-327.7001342773434	1314.822631835938	1694.627197265625	-249.2401885986324	1315.09375	1693.414306640625	-396.6535034179684	1174.979858398438	1523.259399414062	-320.7717285156247	1106.064697265625	1325.805297851562	-249.6563415527341	1104.94140625	1325.632934570312	-385.2795410156247	1355.038452148438	1363.44775390625	-317.8819580078122	1254.261962890625	1479.05126953125	-148.8670959472653	1227.0302734375	1318.761474609375	-57.02926635742158	1290.279296875	1234.218994140625	-62.52808761596652	1171.290283203125	1234.1513671875	-38.56827545165988	1217.056762695312	1129.015991210938	-39.16820144653295	1186.087890625	1124.855346679688	-116.290100097656	1317.799926757812	945.0933227539062	-45.59753799438455	1348.670776367188	877.5272827148438	-88.20052337646464	1287.576782226562	857.0380249023438	-38.64793395996075	1355.868896484375	787.367431640625	-37.73622131347638	1251.599853515625	1476.25439453125	-487.4476928710934	1223.253540039062	1307.68408203125	-578.5781249999997	1282.132080078125	1224.764526367188	-578.7757568359373	1160.2958984375	1232.005981445313	-600.0150146484373	1216.413696289062	1124.076538085938	-605.646057128906	1160.179077148438	1122.426513671875	-547.7875366210935	1314.382568359375	946.6635742187501	-589.9257202148435	1343.044677734375	885.1723632812501	-537.3533935546873	1297.83056640625	864.9589843750001	-598.2434082031248	1371.060546875	805.0607299804689	-585.0649414062498	1257.050659179688	1072.671264648438	-142.9206848144529	1132.965698242188	1044.90380859375	-315.8839416503904	1256.871459960938	1074.121459960938	-488.3895568847654	1211.494873046875	920.8206176757812	-131.5838012695311	1289.12548828125	643.0454711914062	-142.5655212402342	1343.546264648438	664.8148193359375	-135.390899658203	1358.6455078125	561.3378295898438	-161.7591705322264	1293.70361328125	562.024169921875	-158.6961059570311	1183.339599609375	405.5394897460938	-156.4696044921874	1212.177734375	353.4352111816407	-164.922622680664	1154.22412109375	291.3090515136719	-180.9470214843749	1110.589233398438	338.2431640625001	-176.9036560058593	949.8106689453125	207.5549926757813	-264.4856872558593	1036.809326171875	81.42934417724614	-166.9088897705078	1093.75537109375	54.50500869750982	-246.5269775390625	1233.457641601562	960.6904907226564	-496.0355834960935	1363.418334960938	678.7774047851564	-461.7163085937498	1310.041625976562	690.0879516601564	-484.9071960449217	1304.322265625	588.7261962890626	-448.351593017578	1366.298217773438	600.3963012695314	-433.5669555664061	1329.8369140625	323.092987060547	-422.3046569824218	1272.314086914062	305.9995117187501	-432.0730590820312	1259.522583007812	222.3172607421876	-414.4377136230468	1321.89501953125	223.7949371337891	-396.5909729003906	1193.308837890625	43.53343963623055	-340.6343078613281	1371.330322265625	21.16593933105478	-405.1819763183594	1404.311767578125	25.8334693908692	-294.9930725097656	
226	0.9	1380.625732421875	1742.298095703125	-327.8070678710934	1320.518920898438	1695.557861328125	-249.2619934082028	1320.77392578125	1694.377563476562	-396.8050842285152	1180.617065429688	1524.18798828125	-320.7191772460934	1111.513793945312	1326.5732421875	-249.8875885009763	1110.397216796875	1326.59521484375	-385.8399353027341	1360.480102539062	1364.55712890625	-317.8538818359372	1259.4697265625	1480.030517578125	-148.9702453613278	1231.467651367188	1319.765869140625	-56.87688064575166	1294.822021484375	1235.376953125	-61.67779541015597	1175.437866210938	1235.144409179688	-38.95401382446261	1220.188842773438	1129.921875	-39.0533065795896	1191.079345703125	1126.084716796875	-116.4181747436521	1321.71630859375	945.9452514648438	-44.97410202026346	1352.4619140625	878.307861328125	-88.52586364746074	1291.318725585938	858.1192626953125	-38.02767181396465	1359.407104492188	788.2031860351562	-36.77980041503888	1257.244873046875	1477.3076171875	-487.5007324218747	1229.190307617188	1308.886108398438	-578.9525756835934	1288.464111328125	1226.013427734375	-579.189025878906	1166.587158203125	1232.968017578125	-600.3244628906248	1223.202026367188	1124.951782226563	-606.1162109374998	1168.476684570312	1123.241455078125	-548.6342773437498	1321.675048828125	948.3193969726564	-589.782531738281	1350.315185546875	886.9385986328126	-536.8680419921873	1305.437622070312	866.3624267578126	-598.2017822265623	1378.910034179688	806.6785888671876	-585.0587768554685	1263.249267578125	1074.066772460938	-143.4025573730466	1138.287841796875	1045.943237304688	-316.1710205078123	1262.482055664062	1074.949462890625	-488.6537475585935	1217.62109375	922.09228515625	-131.1870880126951	1297.8623046875	644.353271484375	-142.2893066406249	1352.282470703125	666.6021118164062	-135.7894287109374	1367.810668945312	562.96728515625	-161.7586059570311	1303.102172851562	563.2708129882812	-158.3197479248046	1194.068237304688	405.8225708007813	-156.8683624267577	1223.440063476562	354.0611877441407	-165.0456237792968	1166.364013671875	291.1080932617188	-180.8250274658203	1121.983764648438	337.8514099121094	-176.6996917724609	962.997314453125	203.3848266601563	-264.2808227539062	1053.723266601562	79.35441589355473	-166.8668823242187	1111.042114257812	53.81617355346685	-246.6404418945312	1238.665283203125	961.3253173828126	-496.0087890624998	1366.051635742188	678.3847045898439	-461.6782226562498	1312.740600585938	690.3196411132814	-484.7023620605467	1306.061157226562	588.8776245117189	-448.0586853027343	1368.312622070312	600.3592529296876	-433.8944396972655	1330.256469726562	323.1692504882814	-422.3640441894531	1272.087524414062	306.9191894531251	-432.5698852539062	1259.702880859375	222.576156616211	-414.1980285644531	1322.111938476562	223.8576049804688	-396.6160583496093	1193.385131835938	43.71467208862313	-340.4713439941406	1371.343872070312	21.18726158142099	-405.14892578125	1404.38427734375	25.84140586853034	-294.992431640625	
227	0.904	1386.260620117188	1742.977416992188	-327.9405822753902	1326.295166015625	1696.392944335938	-249.2364807128903	1326.392700195312	1695.153442382812	-396.870208740234	1185.99853515625	1524.983642578125	-320.8503723144528	1116.986694335938	1327.275390625	-250.2160339355466	1116.10107421875	1327.610961914062	-386.5216674804685	1365.846313476562	1365.639404296875	-317.8374328613278	1264.6416015625	1480.939575195312	-149.0758972167965	1235.986083984375	1320.78466796875	-56.80813217163057	1299.097412109375	1236.1728515625	-61.03392028808566	1179.61865234375	1236.200805664062	-39.09132385253879	1224.10205078125	1131.01220703125	-38.93445968627905	1195.579345703125	1127.13232421875	-116.4094390869138	1325.539794921875	946.7845458984375	-44.35918426513651	1355.847534179688	878.6629028320312	-88.83202362060527	1295.344482421875	858.6921997070312	-37.9953956604002	1362.905395507812	789.094970703125	-36.04444885253888	1262.73779296875	1478.41064453125	-487.6821899414059	1235.197875976562	1309.880737304688	-579.3425292968747	1294.948364257812	1227.558837890625	-580.3601074218748	1172.916137695312	1233.805786132813	-600.4486083984373	1229.356079101562	1125.906860351563	-606.5548706054685	1174.786376953125	1124.120727539063	-549.1761474609373	1328.939819335938	949.5266113281251	-590.059631347656	1357.942138671875	888.4839477539064	-537.3881225585935	1313.077270507812	867.7070922851564	-598.1440429687498	1386.773193359375	808.4138793945314	-584.9864501953123	1269.488647460938	1075.451782226562	-143.7852478027341	1143.853637695312	1046.914794921875	-316.1516113281248	1268.204711914062	1075.808471679688	-488.8740234374998	1223.562133789062	923.3253173828125	-130.9291534423826	1306.650634765625	645.7816162109375	-142.347198486328	1360.795043945312	668.1063842773438	-136.1130371093749	1376.86328125	564.83447265625	-162.2600708007811	1312.279418945312	564.59033203125	-158.6156768798827	1204.957641601562	406.0308227539063	-157.2982025146484	1234.920043945312	354.5563049316407	-165.1528778076171	1178.524780273438	290.6227111816407	-180.7283630371093	1133.631103515625	336.5062866210938	-177.6587677001952	976.5304565429688	198.9302215576172	-264.0729675292968	1070.996459960938	77.47654724121098	-166.3667755126953	1128.498779296875	53.35651016235357	-246.5367126464844	1243.459838867188	961.9280395507814	-495.8336181640623	1368.688842773438	678.0961914062501	-461.6957702636717	1315.27978515625	690.6888427734376	-484.7187499999998	1308.233642578125	589.0852661132814	-447.923614501953	1370.199584960938	600.0849609375001	-433.8048095703124	1330.646484375	323.1714782714845	-422.3016662597656	1272.381103515625	307.1622009277345	-432.3421630859374	1259.947143554688	222.8313446044923	-413.9812622070312	1321.99462890625	224.2229156494141	-396.9573974609374	1193.552490234375	43.90767669677742	-340.1487426757812	1371.346069335938	21.19034194946298	-405.13134765625	1404.463012695312	25.81458091735846	-295.0226745605469	
228	0.908	1391.831176757812	1743.7373046875	-327.9011840820309	1331.887573242188	1697.169799804688	-249.3769073486324	1331.856323242188	1695.9345703125	-396.870208740234	1191.243286132812	1525.836303710938	-321.2997436523434	1122.494873046875	1328.094604492188	-250.6923828124997	1121.676635742188	1328.506958007812	-387.2450866699216	1371.312744140625	1366.614501953125	-317.8535156249997	1269.7412109375	1481.912231445312	-149.1676330566403	1240.495361328125	1321.731079101562	-56.7718963623044	1303.38916015625	1237.039428710938	-60.39527511596652	1183.591552734375	1237.236694335938	-39.46121215820285	1228.290771484375	1132.131713867188	-38.7062263488767	1199.711791992188	1128.249389648438	-116.1575546264646	1329.363647460938	947.7698974609375	-43.70051956176736	1360.0888671875	879.7850952148438	-87.09032440185527	1298.9013671875	859.968017578125	-36.76648330688457	1366.48291015625	789.9592895507812	-35.08311080932599	1268.47314453125	1479.273681640625	-487.725189208984	1241.224853515625	1310.852783203125	-579.5905761718747	1301.198974609375	1228.666748046875	-580.722229003906	1179.121826171875	1234.724609375	-600.8199462890623	1236.252197265625	1126.973876953125	-606.788635253906	1181.370727539062	1124.995361328125	-550.0812377929685	1335.99609375	951.1876220703126	-590.0240478515623	1365.216064453125	890.1665649414064	-536.7913818359373	1320.678833007812	869.1423339843751	-598.0920410156248	1394.758178710938	810.1994628906251	-584.8519287109373	1277.617431640625	1077.305419921875	-144.485153198242	1149.180053710938	1047.963745117188	-316.211242675781	1272.468994140625	1076.227416992188	-488.4020385742185	1229.52197265625	924.3781127929688	-130.5619354248045	1315.230102539062	646.9432373046875	-142.4001159667967	1369.375854492188	669.9661865234375	-136.1567230224608	1386.168701171875	566.60009765625	-162.7421264648436	1321.54443359375	566.0418090820312	-158.7089385986327	1215.494384765625	405.8929138183594	-157.7306671142577	1245.89697265625	354.2185058593751	-165.2821350097655	1190.74169921875	290.0248413085938	-181.8962097167968	1145.5322265625	335.1762390136719	-177.4332580566405	990.1377563476562	194.4927520751954	-264.0464782714843	1087.451293945312	75.35533905029301	-166.82421875	1146.014892578125	52.86823272705084	-246.9459228515625	1248.807983398438	962.4069824218751	-495.647033691406	1371.327758789062	677.8982543945314	-461.5906677246092	1318.223876953125	690.8969116210939	-484.5620727539061	1310.140991210938	589.5863647460939	-448.0550537109374	1372.295532226562	599.7604370117189	-433.5617675781249	1331.04345703125	323.2254028320314	-422.4117431640624	1272.679809570312	307.3584899902345	-432.1648254394531	1260.404174804688	222.6874542236329	-413.6254882812499	1322.218017578125	224.2743530273438	-397.0003356933593	1193.7080078125	44.18050765991219	-339.9599304199219	1371.368774414062	21.19737625122079	-405.0862731933594	1404.558715820312	25.81520462036139	-295.0525512695312	
